<?xml version="1.0" encoding="UTF-8"?>
<svg width="158px" height="46px" viewBox="0 0 158 46" version="1.1" xmlns="http://www.w3.org/2000/svg" xmlns:xlink="http://www.w3.org/1999/xlink">
    <!-- Generator: Sketch 49.1 (51147) - http://www.bohemiancoding.com/sketch -->
    <title>CK Logo RGB</title>
    <desc>Created with Sketch.</desc>
    <defs>
        <polygon id="path-1" points="0.06 0.689 45.22 0.689 45.22 45.907 0.06 45.907"></polygon>
    </defs>
    <g id="Page-1" stroke="none" stroke-width="1" fill="none" fill-rule="evenodd">
        <g id="CK-Logo-RGB">
            <path d="M68.15,5.601 C67.577,4.855 66.631,4.439 65.698,4.439 C63.418,4.439 61.911,6.261 61.911,8.57 C61.911,10.708 63.332,12.529 65.698,12.529 C66.86,12.529 67.75,12.014 68.353,11.167 L69.514,12.042 C69.213,12.458 67.994,13.82 65.67,13.82 C62.441,13.82 60.449,11.124 60.449,8.57 C60.449,5.415 62.614,3.148 65.742,3.148 C67.076,3.148 68.48,3.65 69.299,4.726 L68.15,5.601" id="Fill-1" fill="#5B7F93"></path>
            <polyline id="Fill-2" fill="#5B7F93" points="71.178 3.407 72.555 3.407 72.555 7.624 77.819 7.624 77.819 3.407 79.196 3.407 79.196 13.563 77.819 13.563 77.819 8.914 72.555 8.914 72.555 13.563 71.178 13.563 71.178 3.407"></polyline>
            <path d="M83.184,7.882 L84.992,7.882 C86.082,7.882 87.172,7.624 87.172,6.246 C87.172,4.87 86.082,4.611 84.992,4.611 L83.184,4.611 L83.184,7.882 Z M81.807,3.407 L85.379,3.407 C87.976,3.407 88.635,4.969 88.635,6.246 C88.635,7.538 87.674,8.756 86.139,8.929 L89.021,13.563 L87.301,13.563 L84.719,9.087 L83.184,9.087 L83.184,13.563 L81.807,13.563 L81.807,3.407 Z" id="Fill-3" fill="#5B7F93"></path>
            <polygon id="Fill-4" fill="#5B7F93" points="90.572 13.563 91.949 13.563 91.949 3.407 90.572 3.407"></polygon>
            <path d="M94.861,11.439 C95.348,12.185 96.195,12.529 97.012,12.529 C97.916,12.529 99.035,11.955 99.035,10.836 C99.035,8.499 94.029,9.947 94.029,5.989 C94.029,4.798 95.033,3.148 97.471,3.148 C98.576,3.148 99.637,3.378 100.397,4.311 L99.279,5.329 C98.935,4.798 98.261,4.439 97.471,4.439 C95.951,4.439 95.492,5.357 95.492,5.989 C95.492,8.556 100.498,7.021 100.498,10.678 C100.498,12.644 98.92,13.82 96.97,13.82 C95.664,13.82 94.416,13.376 93.727,12.415 L94.861,11.439" id="Fill-5" fill="#5B7F93"></path>
            <polyline id="Fill-6" fill="#5B7F93" points="104.658 4.697 101.387 4.697 101.387 3.407 109.305 3.407 109.305 4.697 106.035 4.697 106.035 13.563 104.658 13.563 104.658 4.697"></polyline>
            <polyline id="Fill-7" fill="#5B7F93" points="110.769 3.407 117.324 3.407 117.324 4.697 112.146 4.697 112.146 7.725 116.965 7.725 116.965 9.015 112.146 9.015 112.146 12.271 117.582 12.271 117.582 13.563 110.769 13.563 110.769 3.407"></polyline>
            <polyline id="Fill-8" fill="#5B7F93" points="119.533 3.407 121.342 3.407 126.936 11.755 126.963 11.755 126.963 3.407 128.341 3.407 128.341 13.563 126.59 13.563 120.939 5.213 120.91 5.213 120.91 13.563 119.533 13.563 119.533 3.407"></polyline>
            <path d="M131.252,11.439 C131.74,12.185 132.586,12.529 133.404,12.529 C134.308,12.529 135.427,11.955 135.427,10.836 C135.427,8.499 130.42,9.947 130.42,5.989 C130.42,4.798 131.424,3.148 133.863,3.148 C134.967,3.148 136.029,3.378 136.789,4.311 L135.67,5.329 C135.326,4.798 134.652,4.439 133.863,4.439 C132.342,4.439 131.883,5.357 131.883,5.989 C131.883,8.556 136.889,7.021 136.889,10.678 C136.889,12.644 135.312,13.82 133.361,13.82 C132.056,13.82 130.808,13.376 130.119,12.415 L131.252,11.439" id="Fill-9" fill="#5B7F93"></path>
            <polyline id="Fill-10" fill="#5B7F93" points="138.927 3.407 145.482 3.407 145.482 4.697 140.304 4.697 140.304 7.725 145.124 7.725 145.124 9.015 140.304 9.015 140.304 12.271 145.74 12.271 145.74 13.563 138.927 13.563 138.927 3.407"></polyline>
            <polyline id="Fill-11" fill="#5B7F93" points="147.691 3.407 149.498 3.407 155.092 11.755 155.121 11.755 155.121 3.407 156.498 3.407 156.498 13.563 154.748 13.563 149.096 5.213 149.068 5.213 149.068 13.563 147.691 13.563 147.691 3.407"></polyline>
            <polyline id="Fill-12" fill="#5B7F93" points="61.821 16.922 63.197 16.922 63.197 21.313 63.312 21.313 67.803 16.922 69.725 16.922 64.819 21.613 70.055 27.078 68.047 27.078 63.312 22.002 63.197 22.002 63.197 27.078 61.821 27.078 61.821 16.922"></polyline>
            <path d="M74.286,16.922 L75.663,16.922 L75.663,24.182 C75.663,26.733 73.826,27.337 72.693,27.337 C71.26,27.337 70.212,26.607 69.94,25.114 L71.288,24.812 C71.446,25.573 71.934,26.047 72.693,26.047 C74.057,26.047 74.286,24.884 74.286,23.736 L74.286,16.922" id="Fill-13" fill="#5B7F93"></path>
            <path d="M83.342,23.32 L83.342,18.214 L83.07,18.214 L79.728,23.32 L83.342,23.32 Z M82.41,16.922 L88.951,16.922 L88.951,18.214 L84.72,18.214 L84.72,21.24 L88.693,21.24 L88.693,22.532 L84.72,22.532 L84.72,25.788 L89.123,25.788 L89.123,27.078 L83.342,27.078 L83.342,24.611 L78.981,24.611 L77.532,27.078 L75.84,27.078 L82.41,16.922 Z" id="Fill-14" fill="#5B7F93"></path>
            <path d="M92.451,21.398 L94.259,21.398 C95.35,21.398 96.439,21.141 96.439,19.764 C96.439,18.386 95.35,18.129 94.259,18.129 L92.451,18.129 L92.451,21.398 Z M91.074,16.922 L94.646,16.922 C97.242,16.922 97.902,18.487 97.902,19.764 C97.902,21.054 96.941,22.274 95.406,22.446 L98.289,27.078 L96.568,27.078 L93.986,22.604 L92.451,22.604 L92.451,27.078 L91.074,27.078 L91.074,16.922 Z" id="Fill-15" fill="#5B7F93"></path>
            <path d="M101.029,16.922 L101.029,23.149 C101.029,24.41 101.66,26.047 103.582,26.047 C105.504,26.047 106.135,24.41 106.135,23.149 L106.135,16.922 L107.513,16.922 L107.513,23.363 C107.513,25.716 105.806,27.337 103.582,27.337 C101.359,27.337 99.652,25.716 99.652,23.363 L99.652,16.922 L101.029,16.922" id="Fill-16" fill="#5B7F93"></path>
            <polyline id="Fill-17" fill="#5B7F93" points="109.938 16.922 111.314 16.922 111.314 25.788 115.977 25.788 115.977 27.078 109.938 27.078 109.938 16.922"></polyline>
            <polyline id="Fill-18" fill="#5B7F93" points="117.381 16.922 123.765 16.922 123.765 18.214 118.758 18.214 118.758 21.398 123.42 21.398 123.42 22.69 118.758 22.69 118.758 27.078 117.381 27.078 117.381 16.922"></polyline>
            <polyline id="Fill-19" fill="#5B7F93" points="125.615 16.922 131.998 16.922 131.998 18.214 126.992 18.214 126.992 21.398 131.654 21.398 131.654 22.69 126.992 22.69 126.992 27.078 125.615 27.078 125.615 16.922"></polyline>
            <path d="M17.521,12.139 C15.844,10.463 13.128,10.463 11.451,12.139 C9.775,13.816 9.775,16.533 11.451,18.209 C13.127,19.885 15.846,19.885 17.521,18.209 C19.196,16.533 19.197,13.815 17.521,12.139" id="Fill-20" fill="#E15F29"></path>
            <g id="Group-24">
                <mask id="mask-2" fill="white">
                    <use xlink:href="#path-1"></use>
                </mask>
                <g id="Clip-22"></g>
                <path d="M40.06,20.304 L26.609,20.304 L32.533,14.382 L32.532,12.772 L28.542,8.784 L8.098,29.232 L12.088,33.222 L13.691,33.222 L19.793,27.12 L19.793,40.928 L24.771,45.906 L26.57,45.907 L26.57,27.081 C30.01,27.081 39.207,27.081 45.22,27.081 L45.219,25.464 L40.06,20.304" id="Fill-21" fill="#E15F29" mask="url(#mask-2)"></path>
                <path d="M11.288,22.839 L9.018,20.57 C6.026,17.576 6.025,12.704 9.02,9.71 C12.016,6.713 16.887,6.713 19.883,9.71 L22.15,11.978 L26.139,7.991 L26.139,6.38 L24.675,4.917 C19.037,-0.721 9.864,-0.72 4.229,4.917 C-1.409,10.554 -1.409,19.725 4.229,25.362 L5.694,26.828 L7.301,26.828 L11.288,22.839" id="Fill-23" fill="#E15F29" mask="url(#mask-2)"></path>
            </g>
            <path d="M62.918,43.062 L63.635,43.062 C64.014,43.062 64.394,42.931 64.394,42.476 C64.394,41.973 63.883,41.903 63.469,41.903 L62.918,41.903 L62.918,43.062 Z M61.842,40.993 L63.656,40.993 C64.67,40.993 65.512,41.317 65.512,42.476 C65.512,43.621 64.731,43.973 63.704,43.973 L62.918,43.973 L62.918,45.876 L61.842,45.876 L61.842,40.993 Z" id="Fill-25" fill="#E15F29"></path>
            <polyline id="Fill-26" fill="#E15F29" points="66.23 40.993 69.547 40.993 69.547 41.986 67.306 41.986 67.306 42.897 69.424 42.897 69.424 43.89 67.306 43.89 67.306 44.883 69.672 44.883 69.672 45.876 66.23 45.876 66.23 40.993"></polyline>
            <path d="M71.611,43.014 L72.246,43.014 C72.639,43.014 73.148,43 73.148,42.469 C73.148,41.98 72.707,41.903 72.314,41.903 L71.611,41.903 L71.611,43.014 Z M70.535,40.993 L72.425,40.993 C73.425,40.993 74.267,41.338 74.267,42.476 C74.267,43.158 73.9,43.69 73.211,43.814 L74.453,45.876 L73.163,45.876 L72.143,43.924 L71.611,43.924 L71.611,45.876 L70.535,45.876 L70.535,40.993 Z" id="Fill-27" fill="#E15F29"></path>
            <path d="M77.42,42.187 C77.248,41.966 76.902,41.862 76.641,41.862 C76.338,41.862 75.916,42 75.916,42.365 C75.916,43.255 78.165,42.683 78.165,44.394 C78.165,45.483 77.289,46 76.282,46 C75.654,46 75.104,45.813 74.641,45.387 L75.406,44.545 C75.627,44.835 75.986,45.007 76.344,45.007 C76.696,45.007 77.09,44.842 77.09,44.497 C77.09,43.6 74.799,44.083 74.799,42.455 C74.799,41.414 75.703,40.869 76.662,40.869 C77.213,40.869 77.744,41.014 78.158,41.379 L77.42,42.187" id="Fill-28" fill="#E15F29"></path>
            <path d="M81.34,45.007 C82.257,45.007 82.857,44.345 82.857,43.435 C82.857,42.524 82.257,41.862 81.34,41.862 C80.422,41.862 79.822,42.524 79.822,43.435 C79.822,44.345 80.422,45.007 81.34,45.007 Z M81.34,40.869 C82.863,40.869 83.975,41.869 83.975,43.435 C83.975,45 82.863,46 81.34,46 C79.814,46 78.705,45 78.705,43.435 C78.705,41.869 79.814,40.869 81.34,40.869 Z" id="Fill-29" fill="#E15F29"></path>
            <polyline id="Fill-30" fill="#E15F29" points="84.707 40.993 86.17 40.993 88.246 44.386 88.26 44.386 88.26 40.993 89.336 40.993 89.336 45.876 87.928 45.876 85.797 42.399 85.783 42.399 85.783 45.876 84.707 45.876 84.707 40.993"></polyline>
            <polyline id="Fill-31" fill="#E15F29" points="90.373 40.993 91.448 40.993 91.448 44.883 93.441 44.883 93.441 45.876 90.373 45.876 90.373 40.993"></polyline>
            <polygon id="Fill-32" fill="#E15F29" points="94.023 45.876 95.098 45.876 95.098 40.993 94.023 40.993"></polygon>
            <path d="M100.5,45.531 C99.865,45.862 99.168,46 98.451,46 C96.927,46 95.816,45 95.816,43.435 C95.816,41.869 96.927,40.869 98.451,40.869 C99.224,40.869 99.906,41.041 100.396,41.496 L99.637,42.324 C99.348,42.021 98.996,41.862 98.451,41.862 C97.533,41.862 96.934,42.524 96.934,43.435 C96.934,44.345 97.533,45.007 98.451,45.007 C98.92,45.007 99.266,44.876 99.465,44.766 L99.465,43.973 L98.59,43.973 L98.59,42.98 L100.5,42.98 L100.5,45.531" id="Fill-33" fill="#E15F29"></path>
            <polyline id="Fill-34" fill="#E15F29" points="102.392 41.944 100.998 41.944 100.998 40.993 104.861 40.993 104.861 41.944 103.468 41.944 103.468 45.876 102.392 45.876 102.392 41.944"></polyline>
            <polyline id="Fill-35" fill="#E15F29" points="107.491 40.993 110.809 40.993 110.809 41.986 108.566 41.986 108.566 42.897 110.685 42.897 110.685 43.89 108.566 43.89 108.566 44.883 110.933 44.883 110.933 45.876 107.491 45.876 107.491 40.993"></polyline>
            <polyline id="Fill-36" fill="#E15F29" points="111.797 40.993 113.26 40.993 115.335 44.386 115.349 44.386 115.349 40.993 116.425 40.993 116.425 45.876 115.018 45.876 112.887 42.399 112.873 42.399 112.873 45.876 111.797 45.876 111.797 40.993"></polyline>
            <path d="M121.842,45.531 C121.207,45.862 120.51,46 119.793,46 C118.269,46 117.158,45 117.158,43.435 C117.158,41.869 118.269,40.869 119.793,40.869 C120.565,40.869 121.248,41.041 121.738,41.496 L120.979,42.324 C120.689,42.021 120.338,41.862 119.793,41.862 C118.875,41.862 118.275,42.524 118.275,43.435 C118.275,44.345 118.875,45.007 119.793,45.007 C120.262,45.007 120.607,44.876 120.807,44.766 L120.807,43.973 L119.932,43.973 L119.932,42.98 L121.842,42.98 L121.842,45.531" id="Fill-37" fill="#E15F29"></path>
            <path d="M124.81,42.414 L124.217,43.931 L125.41,43.931 L124.81,42.414 Z M124.396,40.993 L125.285,40.993 L127.41,45.876 L126.195,45.876 L125.775,44.842 L123.879,44.842 L123.471,45.876 L122.285,45.876 L124.396,40.993 Z" id="Fill-38" fill="#E15F29"></path>
            <path d="M132.322,45.531 C131.688,45.862 130.991,46 130.273,46 C128.75,46 127.639,45 127.639,43.435 C127.639,41.869 128.75,40.869 130.273,40.869 C131.047,40.869 131.729,41.041 132.219,41.496 L131.461,42.324 C131.17,42.021 130.818,41.862 130.273,41.862 C129.356,41.862 128.756,42.524 128.756,43.435 C128.756,44.345 129.356,45.007 130.273,45.007 C130.742,45.007 131.088,44.876 131.287,44.766 L131.287,43.973 L130.412,43.973 L130.412,42.98 L132.322,42.98 L132.322,45.531" id="Fill-39" fill="#E15F29"></path>
            <polyline id="Fill-40" fill="#E15F29" points="133.311 40.993 136.629 40.993 136.629 41.986 134.387 41.986 134.387 42.897 136.504 42.897 136.504 43.89 134.387 43.89 134.387 44.883 136.752 44.883 136.752 45.876 133.311 45.876 133.311 40.993"></polyline>
            <polyline id="Fill-41" fill="#E15F29" points="137.616 40.993 139.244 40.993 140.368 44.18 140.382 44.18 141.514 40.993 143.134 40.993 143.134 45.876 142.059 45.876 142.059 42.131 142.044 42.131 140.762 45.876 139.94 45.876 138.706 42.131 138.691 42.131 138.691 45.876 137.616 45.876 137.616 40.993"></polyline>
            <polyline id="Fill-42" fill="#E15F29" points="144.172 40.993 147.488 40.993 147.488 41.986 145.247 41.986 145.247 42.897 147.365 42.897 147.365 43.89 145.247 43.89 145.247 44.883 147.613 44.883 147.613 45.876 144.172 45.876 144.172 40.993"></polyline>
            <polyline id="Fill-43" fill="#E15F29" points="148.477 40.993 149.939 40.993 152.016 44.386 152.029 44.386 152.029 40.993 153.104 40.993 153.104 45.876 151.697 45.876 149.566 42.399 149.553 42.399 149.553 45.876 148.477 45.876 148.477 40.993"></polyline>
            <polyline id="Fill-44" fill="#E15F29" points="155.045 41.944 153.65 41.944 153.65 40.993 157.514 40.993 157.514 41.944 156.121 41.944 156.121 45.876 155.045 45.876 155.045 41.944"></polyline>
        </g>
    </g>
</svg>